<svg width="1440" height="2810" viewBox="0 0 1440 2810" fill="none" xmlns="http://www.w3.org/2000/svg">
<circle cx="1334.55" cy="2297" r="2" fill="#ABB2BF"/>
<circle cx="1359.3" cy="2297" r="2" fill="#ABB2BF"/>
<circle cx="1384.05" cy="2297" r="2" fill="#ABB2BF"/>
<circle cx="1408.8" cy="2297" r="2" fill="#ABB2BF"/>
<circle cx="1433.55" cy="2297" r="2" fill="#ABB2BF"/>
<circle cx="1334.55" cy="2321.75" r="2" fill="#ABB2BF"/>
<circle cx="1359.3" cy="2321.75" r="2" fill="#ABB2BF"/>
<circle cx="1384.05" cy="2321.75" r="2" fill="#ABB2BF"/>
<circle cx="1408.8" cy="2321.75" r="2" fill="#ABB2BF"/>
<circle cx="1433.55" cy="2321.75" r="2" fill="#ABB2BF"/>
<circle cx="1334.55" cy="2346.5" r="2" fill="#ABB2BF"/>
<circle cx="1359.3" cy="2346.5" r="2" fill="#ABB2BF"/>
<circle cx="1384.05" cy="2346.5" r="2" fill="#ABB2BF"/>
<circle cx="1408.8" cy="2346.5" r="2" fill="#ABB2BF"/>
<circle cx="1433.55" cy="2346.5" r="2" fill="#ABB2BF"/>
<circle cx="1334.55" cy="2371.25" r="2" fill="#ABB2BF"/>
<circle cx="1359.3" cy="2371.25" r="2" fill="#ABB2BF"/>
<circle cx="1384.05" cy="2371.25" r="2" fill="#ABB2BF"/>
<circle cx="1408.8" cy="2371.25" r="2" fill="#ABB2BF"/>
<circle cx="1433.55" cy="2371.25" r="2" fill="#ABB2BF"/>
<circle cx="1334.55" cy="2396" r="2" fill="#ABB2BF"/>
<circle cx="1359.3" cy="2396" r="2" fill="#ABB2BF"/>
<circle cx="1384.05" cy="2396" r="2" fill="#ABB2BF"/>
<circle cx="1408.8" cy="2396" r="2" fill="#ABB2BF"/>
<circle cx="1433.55" cy="2396" r="2" fill="#ABB2BF"/>
<circle cx="5" cy="2708.3" r="2" fill="#ABB2BF"/>
<circle cx="29.75" cy="2708.3" r="2" fill="#ABB2BF"/>
<circle cx="54.5" cy="2708.3" r="2" fill="#ABB2BF"/>
<circle cx="79.25" cy="2708.3" r="2" fill="#ABB2BF"/>
<circle cx="104" cy="2708.3" r="2" fill="#ABB2BF"/>
<circle cx="5" cy="2733.05" r="2" fill="#ABB2BF"/>
<circle cx="29.75" cy="2733.05" r="2" fill="#ABB2BF"/>
<circle cx="54.5" cy="2733.05" r="2" fill="#ABB2BF"/>
<circle cx="79.25" cy="2733.05" r="2" fill="#ABB2BF"/>
<circle cx="104" cy="2733.05" r="2" fill="#ABB2BF"/>
<circle cx="5" cy="2757.8" r="2" fill="#ABB2BF"/>
<circle cx="29.75" cy="2757.8" r="2" fill="#ABB2BF"/>
<circle cx="54.5" cy="2757.8" r="2" fill="#ABB2BF"/>
<circle cx="79.25" cy="2757.8" r="2" fill="#ABB2BF"/>
<circle cx="104" cy="2757.8" r="2" fill="#ABB2BF"/>
<circle cx="5" cy="2782.55" r="2" fill="#ABB2BF"/>
<circle cx="29.75" cy="2782.55" r="2" fill="#ABB2BF"/>
<circle cx="54.5" cy="2782.55" r="2" fill="#ABB2BF"/>
<circle cx="79.25" cy="2782.55" r="2" fill="#ABB2BF"/>
<circle cx="104" cy="2782.55" r="2" fill="#ABB2BF"/>
<circle cx="5" cy="2807.3" r="2" fill="#ABB2BF"/>
<circle cx="29.75" cy="2807.3" r="2" fill="#ABB2BF"/>
<circle cx="54.5" cy="2807.3" r="2" fill="#ABB2BF"/>
<circle cx="79.25" cy="2807.3" r="2" fill="#ABB2BF"/>
<circle cx="104" cy="2807.3" r="2" fill="#ABB2BF"/>
<circle cx="6.5708" cy="958" r="2" fill="#ABB2BF"/>
<circle cx="26.5708" cy="958" r="2" fill="#ABB2BF"/>
<circle cx="46.5708" cy="958" r="2" fill="#ABB2BF"/>
<circle cx="66.5708" cy="958" r="2" fill="#ABB2BF"/>
<circle cx="86.5708" cy="958" r="2" fill="#ABB2BF"/>
<circle cx="6.5708" cy="978" r="2" fill="#ABB2BF"/>
<circle cx="26.5708" cy="978" r="2" fill="#ABB2BF"/>
<circle cx="46.5708" cy="978" r="2" fill="#ABB2BF"/>
<circle cx="66.5708" cy="978" r="2" fill="#ABB2BF"/>
<circle cx="86.5708" cy="978" r="2" fill="#ABB2BF"/>
<circle cx="6.5708" cy="998" r="2" fill="#ABB2BF"/>
<circle cx="26.5708" cy="998" r="2" fill="#ABB2BF"/>
<circle cx="46.5708" cy="998" r="2" fill="#ABB2BF"/>
<circle cx="66.5708" cy="998" r="2" fill="#ABB2BF"/>
<circle cx="86.5708" cy="998" r="2" fill="#ABB2BF"/>
<circle cx="6.5708" cy="1018" r="2" fill="#ABB2BF"/>
<circle cx="26.5708" cy="1018" r="2" fill="#ABB2BF"/>
<circle cx="46.5708" cy="1018" r="2" fill="#ABB2BF"/>
<circle cx="66.5708" cy="1018" r="2" fill="#ABB2BF"/>
<circle cx="86.5708" cy="1018" r="2" fill="#ABB2BF"/>
<circle cx="6.5708" cy="1038" r="2" fill="#ABB2BF"/>
<circle cx="26.5708" cy="1038" r="2" fill="#ABB2BF"/>
<circle cx="46.5708" cy="1038" r="2" fill="#ABB2BF"/>
<circle cx="66.5708" cy="1038" r="2" fill="#ABB2BF"/>
<circle cx="86.5708" cy="1038" r="2" fill="#ABB2BF"/>
<rect x="2.54541" y="2126.5" width="154" height="154" stroke="#ABB2BF"/>
<rect x="1282.63" y="1161.5" width="154" height="154" stroke="#ABB2BF"/>
<rect x="1347.45" y="673.5" width="90" height="90" stroke="#ABB2BF"/>
</svg>
